<?xml version="1.0" standalone="no"?>
<!DOCTYPE svg PUBLIC "-//W3C//DTD SVG 20010904//EN"
 "http://www.w3.org/TR/2001/REC-SVG-20010904/DTD/svg10.dtd">
<svg version="1.0" xmlns="http://www.w3.org/2000/svg"
 width="2400.000000pt" height="2400.000000pt" viewBox="0 0 2400.000000 2400.000000"
 preserveAspectRatio="xMidYMid meet">
<metadata>
Created by potrace 1.14, written by Peter Selinger 2001-2017
</metadata>
<g transform="translate(0.000000,2400.000000) scale(0.100000,-0.100000)"
fill="#000000" stroke="none">
<path d="M18055 16968 c-57 -30 -104 -65 -164 -125 -46 -46 -88 -83 -93 -83
-5 0 -7 -4 -3 -9 3 -5 -22 -47 -55 -93 -33 -46 -67 -99 -76 -118 -9 -19 -22
-42 -29 -50 -27 -33 -175 -320 -175 -339 0 -6 -4 -11 -10 -11 -5 0 -10 -5 -10
-11 0 -6 -6 -17 -14 -25 -8 -7 -16 -19 -19 -26 -2 -7 -8 -10 -12 -6 -4 4 -2
14 4 22 19 23 -5 50 -63 70 -28 10 -55 24 -59 30 -5 6 -5 0 -2 -13 5 -17 4
-21 -5 -16 -6 4 -17 -1 -24 -11 -13 -17 -42 -11 -31 7 4 5 2 9 -2 9 -13 0
-107 -161 -179 -305 -101 -204 -119 -232 -139 -215 -10 8 -15 6 -20 -9 -8 -26
-25 -28 -26 -3 -1 26 -30 -88 -34 -133 -3 -35 -7 -41 -33 -49 -17 -5 -50 -26
-73 -47 -24 -22 -48 -39 -54 -40 -27 -3 -71 4 -80 12 -5 5 -20 9 -35 9 -14 0
-57 9 -95 19 -68 17 -84 24 -211 82 -35 17 -69 26 -81 23 -32 -9 -86 12 -121
47 l-32 31 0 -26 0 -26 -120 0 c-100 0 -120 -2 -120 -15 0 -18 -23 -18 -128
-5 -44 6 -80 6 -90 0 -33 -18 -116 -40 -149 -40 -48 0 -41 -18 10 -23 23 -2
-13 -4 -80 -5 -116 -2 -123 -3 -123 -22 0 -18 -7 -20 -80 -20 -77 0 -80 -1
-80 -24 0 -23 0 -23 -157 -28 -102 -4 -159 -10 -161 -17 -2 -7 -33 -11 -83
-11 -72 0 -79 -2 -79 -20 0 -18 -7 -20 -67 -19 -79 1 -108 -4 -145 -21 -25
-12 -28 -19 -28 -62 l0 -48 -120 0 c-113 0 -120 -1 -120 -20 0 -17 -7 -20 -40
-20 -38 0 -40 -2 -40 -30 0 -28 -2 -30 -39 -30 -22 0 -41 5 -44 13 -2 6 -13
-6 -23 -28 -11 -22 -23 -43 -29 -47 -21 -15 12 -43 61 -51 88 -15 95 -17 89
-27 -12 -20 26 -22 88 -6 85 22 268 39 415 38 67 0 122 4 122 9 0 15 172 10
235 -7 41 -11 103 -17 193 -17 101 -1 132 -4 132 -14 0 -14 48 -17 89 -6 23 6
24 7 5 15 -13 6 -9 7 15 3 18 -3 70 -5 115 -5 l81 0 -3 -45 c-4 -42 -6 -45
-33 -45 -16 0 -29 5 -29 10 0 6 -18 10 -40 10 -22 0 -40 -4 -40 -10 0 -6 -30
-10 -70 -10 l-70 0 0 -52 c0 -29 -5 -60 -10 -68 -8 -12 -10 -9 -10 13 0 15 -5
27 -11 27 -7 0 -8 -7 -4 -17 3 -10 9 -31 12 -47 5 -25 4 -28 -11 -23 -10 4
-22 7 -27 7 -5 0 -9 6 -9 14 0 17 -6 21 -40 29 -36 9 -58 -6 -41 -27 12 -14 2
-16 -101 -16 -63 0 -118 3 -121 7 -4 4 -152 8 -330 9 -177 2 -345 5 -373 7
-28 3 -152 8 -277 12 -125 4 -227 11 -227 16 0 5 15 9 33 9 21 0 44 10 67 30
19 16 43 30 52 30 10 0 22 9 28 19 6 13 17 17 30 14 15 -4 20 0 20 16 0 19 -6
21 -52 21 -29 0 -66 -7 -82 -15 -41 -22 -56 -19 -56 10 0 15 -6 25 -15 25 -8
0 -22 -11 -31 -25 -15 -24 -21 -25 -105 -25 -69 0 -89 -3 -89 -14 0 -8 -22
-19 -52 -28 -54 -15 -72 -33 -41 -41 35 -9 -118 -12 -682 -13 -645 -1 -787 -6
-899 -28 -43 -9 -82 -13 -86 -11 -10 6 -103 -25 -111 -37 -3 -6 -15 -8 -25 -7
-25 4 -296 -32 -290 -39 3 -2 99 1 213 8 115 7 220 10 233 7 37 -9 76 -47 59
-58 -26 -16 45 -22 183 -15 76 3 138 3 138 -1 0 -5 33 -8 73 -9 368 -4 1867
-52 2812 -90 347 -13 806 -27 1020 -31 l390 -6 55 28 c136 69 292 196 380 310
113 146 350 610 530 1035 15 36 46 110 70 165 23 55 53 124 66 153 13 29 24
56 24 61 0 13 190 384 206 402 8 8 14 19 14 23 0 16 114 158 183 226 39 40
109 95 155 123 70 43 92 58 80 57 -2 0 -39 -19 -83 -42z m-1193 -1445 c-11
-28 -11 -28 -9 9 1 21 6 33 11 28 4 -4 4 -21 -2 -37z m-25 15 c-3 -8 -6 -5 -6
6 -1 11 2 17 5 13 3 -3 4 -12 1 -19z m-1672 -148 c-3 -5 -10 -10 -16 -10 -5 0
-9 5 -9 10 0 6 7 10 16 10 8 0 12 -4 9 -10z m-445 -80 c0 -5 -18 -10 -40 -10
-22 0 -40 5 -40 10 0 6 18 10 40 10 22 0 40 -4 40 -10z m-320 -110 c0 -36 -2
-40 -25 -40 -22 0 -25 4 -25 40 0 36 3 40 25 40 23 0 25 -4 25 -40z m-773
-456 c-3 -3 -12 -4 -19 -1 -8 3 -5 6 6 6 11 1 17 -2 13 -5z m-259 -11 c-15 -2
-42 -2 -60 0 -18 2 -6 4 27 4 33 0 48 -2 33 -4z m1975 0 c-13 -2 -33 -2 -45 0
-13 2 -3 4 22 4 25 0 35 -2 23 -4z m-66 -59 c-3 -3 -12 -4 -19 -1 -8 3 -5 6 6
6 11 1 17 -2 13 -5z m526 -11 c-7 -2 -19 -2 -25 0 -7 3 -2 5 12 5 14 0 19 -2
13 -5z"/>
<path d="M12043 16893 c9 -2 23 -2 30 0 6 3 -1 5 -18 5 -16 0 -22 -2 -12 -5z"/>
<path d="M18865 16780 c-142 -13 -376 -85 -360 -111 9 -13 34 -11 50 5 20 19
172 59 211 54 18 -2 30 0 28 4 -3 4 26 8 65 8 67 0 71 -1 85 -27 62 -122 245
-630 305 -848 13 -44 30 -105 38 -135 58 -203 84 -321 78 -350 -4 -16 -2 -20
3 -12 9 13 34 -103 36 -170 0 -20 4 -34 7 -33 7 5 32 -141 30 -179 -1 -15 4
-35 10 -42 7 -8 12 -51 13 -100 1 -51 4 -76 8 -62 4 13 6 -4 5 -40 -2 -34 0
-57 5 -50 6 10 10 10 17 -2 18 -27 21 -4 10 66 -6 38 -14 101 -19 139 -13 100
-48 295 -60 329 -5 16 -10 41 -10 55 0 24 -42 214 -76 341 -8 30 -19 71 -24
90 -5 19 -26 91 -46 160 -19 69 -39 139 -44 155 -5 17 -23 68 -40 115 -17 47
-35 99 -40 115 -6 17 -14 39 -19 50 -5 11 -35 83 -66 160 -32 77 -68 163 -81
192 -32 69 -31 77 7 69 17 -3 45 -6 61 -6 18 0 31 -6 35 -17 4 -10 10 -20 13
-23 4 -3 22 -36 41 -74 18 -38 34 -65 36 -59 2 6 -12 44 -32 83 -20 40 -34 74
-32 77 9 8 209 -48 316 -88 176 -67 433 -207 553 -301 44 -34 231 -332 271
-432 4 -10 10 -16 13 -13 6 6 -23 62 -95 187 -28 47 -62 105 -76 130 -14 25
-35 60 -46 78 l-20 34 33 -23 c108 -76 241 -190 364 -314 127 -126 147 -151
187 -231 103 -205 129 -353 82 -468 -22 -54 -69 -117 -78 -105 -2 2 -23 49
-46 104 -56 132 -193 416 -198 411 -3 -2 13 -42 35 -88 40 -83 131 -282 159
-348 8 -19 19 -43 24 -52 19 -36 8 -60 -53 -122 -64 -63 -125 -106 -208 -144
-150 -69 -228 -102 -240 -102 -7 0 -11 -3 -7 -6 10 -10 183 54 291 108 153 76
223 131 354 277 17 19 36 48 42 65 13 35 34 80 55 116 52 90 -33 294 -203 489
-67 77 -277 289 -342 345 -132 114 -465 336 -504 336 -9 0 -16 4 -16 9 0 12
-202 101 -229 101 -14 0 -20 4 -15 12 5 8 2 9 -11 5 -9 -4 -23 -3 -30 3 -7 6
-21 13 -31 15 -26 6 -78 20 -144 40 -30 8 -71 18 -90 20 -19 2 -80 11 -135 20
-55 8 -107 14 -115 14 -8 -1 -51 -5 -95 -9z m1922 -1287 c-3 -10 -5 -4 -5 12
0 17 2 24 5 18 2 -7 2 -21 0 -30z"/>
<path d="M18434 16770 c-12 -5 -25 -13 -29 -19 -3 -6 -21 -18 -38 -27 -24 -11
-28 -11 -14 -1 28 23 20 30 -13 10 -17 -10 -28 -23 -26 -30 3 -7 0 -15 -6 -19
-7 -4 -8 -3 -4 4 19 31 -16 6 -70 -50 -64 -66 -128 -149 -181 -233 -47 -75
-184 -361 -248 -520 -88 -218 -285 -774 -426 -1199 -49 -147 -93 -274 -98
-280 -7 -9 -4 -17 9 -29 17 -14 20 -30 20 -96 l0 -79 43 -6 c38 -5 104 -11
222 -21 22 -2 103 -3 179 -4 77 -1 137 -4 134 -7 -9 -9 36 -51 50 -46 7 3 12
-6 12 -22 0 -25 3 -27 38 -23 63 7 89 25 61 43 -8 4 -7 9 2 15 11 7 10 11 -4
21 -18 13 -18 14 1 31 11 10 49 21 93 27 148 20 225 31 264 39 l40 9 -50 1
c-51 1 -256 -15 -310 -24 -18 -3 -26 -2 -20 4 13 12 230 37 445 51 96 6 216
14 265 18 103 8 94 -5 78 125 -5 37 -6 67 -2 67 4 0 11 -32 15 -70 4 -39 11
-73 16 -76 11 -7 132 20 178 40 50 21 133 103 125 123 -3 9 0 20 7 24 30 19
-10 19 -178 0 -500 -55 -512 -56 -697 -42 -94 7 -191 15 -214 18 -40 5 -42 7
-36 34 4 23 2 29 -11 29 -15 0 -16 16 -12 163 4 163 13 216 62 370 21 66 60
111 112 128 95 31 431 -61 690 -190 99 -49 161 -100 183 -150 12 -26 15 -28
22 -13 5 11 6 9 2 -9 -3 -17 8 -50 34 -100 20 -41 46 -100 56 -132 16 -56 19
-59 44 -52 14 4 55 12 91 19 40 8 56 15 42 17 -12 2 -23 9 -23 14 0 6 11 11
23 12 22 2 21 1 -2 -6 -22 -8 -19 -9 18 -10 23 -1 42 4 42 9 0 6 -7 10 -16 10
-8 0 -12 5 -9 10 3 6 -2 10 -12 10 -11 0 -25 6 -32 13 -11 10 -13 9 -8 -4 4
-13 1 -15 -14 -12 -12 3 -19 14 -19 29 0 19 -5 24 -25 24 -16 0 -25 6 -25 15
0 8 5 15 10 15 6 0 10 18 10 40 0 28 -4 40 -14 40 -11 0 -13 10 -9 40 4 26 2
40 -6 40 -15 0 -14 77 2 83 7 2 -1 16 -23 37 -22 21 -30 35 -22 37 16 6 6 23
-14 23 -10 0 -14 -13 -14 -50 0 -38 -4 -50 -15 -50 -12 0 -15 16 -15 80 0 69
-2 80 -17 80 -17 1 -17 1 0 14 23 18 22 25 -8 36 -15 6 -25 17 -25 29 0 10
-11 26 -25 35 -25 16 -34 46 -15 46 6 0 10 18 10 40 0 29 -4 40 -15 40 -11 0
-15 11 -15 39 0 22 -5 42 -12 44 -10 4 -10 8 1 15 12 9 9 15 -17 37 -28 24
-32 33 -33 78 0 29 -4 61 -8 72 -8 18 -10 16 -19 -15 -9 -31 -10 -32 -11 -9
-1 36 -31 59 -74 59 -36 0 -37 1 -37 39 0 30 -4 40 -20 44 -11 3 -23 13 -26
24 -12 31 -36 53 -61 53 -22 0 -23 4 -23 64 0 46 -4 67 -16 77 -15 12 -14 14
1 19 13 4 6 10 -24 20 -41 13 -56 42 -28 53 10 4 10 6 0 6 -7 1 -13 12 -13 24
0 32 -30 57 -69 57 -23 0 -41 9 -62 29 -24 25 -29 37 -29 80 0 39 -4 51 -15
51 -11 0 -15 11 -15 41 l0 42 -57 -6 c-38 -4 -53 -3 -43 3 23 15 -8 32 -45 25
-39 -7 -51 -20 -35 -39 10 -13 9 -17 -4 -22 -24 -9 -52 4 -38 18 6 6 8 17 5
24 -3 8 0 14 6 14 6 0 11 9 11 21 0 12 -4 18 -11 13 -7 -4 -10 -1 -7 7 3 8 11
13 18 11 18 -4 50 28 50 49 0 10 6 22 13 26 15 10 77 89 77 99 0 4 10 17 23
30 66 68 68 73 21 54z m-170 -132 c-10 -18 -87 -122 -95 -128 -14 -11 -94
-149 -144 -249 -83 -163 -177 -379 -278 -636 -108 -273 -127 -324 -242 -665
-41 -118 -74 -208 -74 -199 -2 41 292 868 409 1149 86 209 93 224 156 350 71
142 138 245 213 331 50 56 71 74 55 47z m26 -88 c0 -5 -4 -10 -10 -10 -5 0
-10 5 -10 10 0 6 5 10 10 10 6 0 10 -4 10 -10z m-78 -102 c-7 -7 -12 -8 -12
-2 0 14 12 26 19 19 2 -3 -1 -11 -7 -17z m154 -46 c-21 -2 -42 0 -47 5 -4 4
13 6 39 3 l47 -5 -39 -3z m-179 -74 c-23 -42 -47 -61 -47 -37 0 20 51 89 61
83 5 -3 -1 -24 -14 -46z m-141 -256 c-11 -10 -15 4 -8 28 l7 25 3 -23 c2 -13
1 -26 -2 -30z m480 -49 c6 -10 11 -49 13 -87 1 -38 6 -76 11 -86 16 -31 6 -83
-23 -114 -15 -16 -27 -34 -28 -40 0 -6 -4 -2 -9 9 -7 15 -9 10 -9 -22 -1 -31
-5 -43 -16 -43 -11 0 -15 11 -15 40 0 36 -2 40 -25 40 -25 0 -25 1 -25 80 l0
80 -28 0 c-15 0 -33 5 -40 12 -9 9 -12 9 -12 0 0 -7 -4 -12 -10 -12 -5 0 -10
16 -10 35 0 19 -5 44 -12 55 -7 10 -10 21 -7 24 7 7 56 17 127 26 35 4 66 10
69 14 12 12 38 6 49 -11z m-206 -319 c0 -8 -4 -12 -10 -9 -5 3 -10 10 -10 16
0 5 5 9 10 9 6 0 10 -7 10 -16z m790 -780 c0 -8 -5 -12 -10 -9 -6 4 -8 11 -5
16 9 14 15 11 15 -7z m167 -158 c-2 -6 -14 -10 -25 -9 -19 2 -21 -1 -16 -30 3
-17 7 -37 9 -43 2 -6 -3 -11 -11 -11 -9 0 -14 11 -14 30 0 20 -4 28 -13 24 -7
-2 -18 6 -24 19 -6 13 -7 22 -2 18 5 -3 9 1 9 8 0 9 13 12 45 10 29 -3 44 -8
42 -16z m-1873 -120 c-15 -47 -30 -83 -32 -81 -3 2 8 43 23 90 15 47 29 84 32
81 3 -2 -8 -43 -23 -90z m1831 -6 c3 -5 1 -10 -4 -10 -6 0 -11 5 -11 10 0 6 2
10 4 10 3 0 8 -4 11 -10z m72 -6 c-3 -3 -12 -4 -19 -1 -8 3 -5 6 6 6 11 1 17
-2 13 -5z m-1947 -129 c-7 -20 -14 -35 -16 -33 -2 2 2 21 8 41 6 20 13 35 16
33 2 -3 -1 -21 -8 -41z m663 -52 c-7 -2 -21 -2 -30 0 -10 3 -4 5 12 5 17 0 24
-2 18 -5z m50 0 c-7 -2 -19 -2 -25 0 -7 3 -2 5 12 5 14 0 19 -2 13 -5z m-613
-40 c-14 -3 -29 -12 -34 -21 -8 -14 -10 -14 -17 3 -6 16 -8 16 -8 4 -1 -25
-31 -33 -31 -9 0 21 18 28 75 27 25 0 31 -1 15 -4z"/>
<path d="M20290 15821 c0 -5 5 -13 10 -16 6 -3 10 -2 10 4 0 5 -4 13 -10 16
-5 3 -10 2 -10 -4z"/>
<path d="M20319 15763 c5 -10 17 -27 25 -38 13 -16 13 -13 -1 17 -10 21 -22
38 -26 38 -4 0 -3 -8 2 -17z"/>
<path d="M19546 15592 c14 -61 23 -96 49 -182 9 -30 22 -84 29 -120 7 -36 17
-74 23 -85 6 -11 16 -54 23 -95 7 -41 15 -82 18 -90 5 -16 7 -21 17 -71 5 -27
4 -31 -5 -19 -10 13 -11 13 -6 -2 3 -10 1 -20 -4 -23 -12 -7 -13 -55 -2 -55 5
0 13 -17 20 -37 11 -40 10 -23 -4 61 -4 25 -3 37 3 33 6 -4 13 -28 16 -54 3
-27 9 -59 13 -72 5 -18 4 -22 -5 -16 -10 6 -11 3 -2 -12 10 -20 6 -33 -11 -33
-5 0 -6 5 -2 12 4 6 -9 2 -28 -10 -20 -13 -69 -29 -108 -36 -77 -15 -92 -22
-66 -32 16 -6 131 21 151 35 6 4 36 13 68 20 42 9 57 17 53 27 -3 7 -17 68
-31 135 -14 67 -28 126 -31 131 -3 5 -14 48 -25 96 -28 130 -54 232 -77 298
-11 32 -28 86 -38 119 -9 33 -21 64 -26 70 -4 5 -8 19 -8 31 0 13 -4 25 -9 28
-5 3 -3 -20 5 -52z"/>
<path d="M16130 15536 c0 -2 7 -6 15 -10 8 -3 15 -1 15 4 0 6 -7 10 -15 10 -8
0 -15 -2 -15 -4z"/>
<path d="M14760 15410 l-45 -7 58 -1 c32 -1 57 2 57 8 0 11 -1 11 -70 0z"/>
<path d="M14850 15410 c0 -5 7 -10 15 -10 8 0 15 5 15 10 0 6 -7 10 -15 10 -8
0 -15 -4 -15 -10z"/>
<path d="M20805 15160 c21 -22 41 -37 44 -35 6 7 -60 75 -73 75 -6 0 7 -18 29
-40z"/>
<path d="M19640 15105 c0 -14 4 -25 9 -25 4 0 6 11 3 25 -2 14 -6 25 -8 25 -2
0 -4 -11 -4 -25z"/>
<path d="M19400 15090 c0 -5 5 -10 11 -10 5 0 7 5 4 10 -3 6 -8 10 -11 10 -2
0 -4 -4 -4 -10z"/>
<path d="M13760 14990 c0 -5 6 -10 14 -10 8 0 18 5 21 10 3 6 -3 10 -14 10
-12 0 -21 -4 -21 -10z"/>
<path d="M8870 14920 c-9 -6 -10 -10 -3 -10 6 0 15 5 18 10 8 12 4 12 -15 0z"/>
<path d="M8830 14891 c-7 -15 -7 -21 0 -21 12 0 25 28 17 36 -3 3 -10 -4 -17
-15z"/>
<path d="M8780 14837 c-14 -6 -28 -15 -31 -19 -3 -5 -157 -10 -343 -12 -185
-2 -340 -7 -344 -11 -3 -3 0 -10 8 -15 12 -8 9 -10 -10 -10 -20 0 -22 -2 -10
-10 8 -5 12 -10 8 -11 -5 -1 -11 -2 -15 -3 -40 -9 -69 -58 -40 -69 6 -3 -5 -6
-26 -6 -26 -1 -37 -5 -35 -13 4 -10 100 -15 413 -20 225 -4 411 -5 414 -2 3 3
-1 9 -9 14 -13 8 -13 10 1 10 9 0 19 7 23 15 3 8 12 15 19 15 8 0 26 9 41 21
14 11 26 17 27 12 0 -4 4 2 9 15 5 12 18 22 28 22 10 0 27 7 38 15 18 13 16
14 -21 15 -70 0 -145 12 -145 23 0 5 8 16 18 23 21 16 15 16 -18 1z"/>
<path d="M20038 14803 c7 -3 16 -2 19 1 4 3 -2 6 -13 5 -11 0 -14 -3 -6 -6z"/>
<path d="M19978 14783 c6 -2 18 -2 25 0 6 3 1 5 -13 5 -14 0 -19 -2 -12 -5z"/>
<path d="M19585 14730 c-7 -12 27 -22 37 -12 6 6 1 12 -11 15 -12 3 -23 2 -26
-3z"/>
<path d="M14923 14723 c-29 -3 -43 -9 -43 -19 0 -16 11 -17 99 -8 41 5 61 11
61 20 0 14 -22 15 -117 7z"/>
<path d="M19540 14710 c-8 -5 -12 -11 -9 -14 3 -3 14 1 25 9 21 16 8 20 -16 5z"/>
<path d="M19455 14664 c9 -9 19 -13 23 -10 3 4 0 11 -8 16 -24 15 -33 11 -15
-6z"/>
<path d="M7905 14660 c3 -5 8 -10 11 -10 2 0 4 5 4 10 0 6 -5 10 -11 10 -5 0
-7 -4 -4 -10z"/>
<path d="M20010 14630 c-18 -12 -2 -12 25 0 13 6 15 9 5 9 -8 0 -22 -4 -30 -9z"/>
<path d="M11217 14605 c-5 -10 -28 -15 -94 -18 -64 -2 -53 -3 42 -4 72 0 117
2 100 6 -16 4 -29 12 -27 19 3 17 -15 15 -21 -3z"/>
<path d="M11691 14606 c2 -2 15 -9 29 -15 24 -11 24 -11 6 3 -16 13 -49 24
-35 12z"/>
<path d="M19826 14583 c-45 -12 -60 -13 -66 -3 -5 8 -9 5 -13 -9 -6 -26 -10
-26 93 3 93 27 81 34 -14 9z"/>
<path d="M10958 14583 c12 -2 30 -2 40 0 9 3 -1 5 -23 4 -22 0 -30 -2 -17 -4z"/>
<path d="M11468 14573 c6 -2 18 -2 25 0 6 3 1 5 -13 5 -14 0 -19 -2 -12 -5z"/>
<path d="M11628 14563 c7 -3 16 -2 19 1 4 3 -2 6 -13 5 -11 0 -14 -3 -6 -6z"/>
<path d="M19690 14530 c-18 -12 -2 -12 25 0 13 6 15 9 5 9 -8 0 -22 -4 -30 -9z"/>
<path d="M19229 14508 c-6 -13 -27 -42 -46 -65 -19 -24 -29 -43 -24 -43 12 0
90 18 346 79 148 35 156 38 98 37 -34 0 -57 -3 -51 -7 15 -10 -15 -18 -45 -12
-16 3 -27 1 -27 -6 0 -6 -10 -11 -22 -11 -54 -1 -127 -10 -150 -19 -25 -9 -38
-6 -38 10 0 4 10 9 23 11 27 4 24 23 -3 22 -11 0 -20 5 -20 13 0 21 -28 15
-41 -9z m21 -17 c0 -6 -4 -13 -10 -16 -5 -3 -10 1 -10 9 0 9 5 16 10 16 6 0
10 -4 10 -9z m20 -41 c0 -5 -2 -10 -4 -10 -2 0 -12 -3 -22 -7 -16 -6 -17 -5
-4 10 17 19 30 22 30 7z"/>
<path d="M21280 14435 c-92 -30 -139 -51 -148 -65 -7 -11 -15 -54 -19 -96 l-6
-76 34 7 c78 16 275 77 287 89 28 27 27 186 -1 186 -7 0 -73 -21 -147 -45z"/>
<path d="M16437 14183 c-22 -116 -55 -190 -97 -222 -46 -34 -125 -57 -267 -81
-71 -11 -148 -25 -173 -30 -25 -5 -85 -16 -135 -25 -311 -56 -824 -176 -1090
-256 -503 -151 -1039 -374 -1412 -585 -202 -115 -548 -348 -706 -477 -48 -39
-65 -46 -129 -57 -311 -51 -1139 -227 -1468 -312 -649 -167 -1073 -338 -1690
-681 -153 -85 -408 -245 -515 -323 -174 -127 -180 -129 -247 -104 -29 11 -105
35 -168 54 -319 95 -417 108 -1630 226 -166 16 -726 58 -1070 80 -173 11 -396
27 -495 35 -429 34 -902 60 -1400 76 -486 15 -606 7 -750 -55 -33 -14 -68 -26
-77 -26 -10 0 -18 -3 -18 -7 0 -17 40 -72 58 -82 43 -23 749 -129 1447 -216
268 -34 329 -47 412 -86 93 -44 163 -114 334 -334 79 -103 150 -185 159 -185
9 0 67 56 128 125 189 210 305 295 447 326 75 17 245 16 840 -5 248 -8 648
-20 890 -26 242 -5 531 -12 642 -16 273 -8 283 -5 431 104 171 127 390 271
496 326 34 17 31 18 346 -107 349 -138 460 -167 642 -167 144 0 736 46 1098
85 74 7 218 21 320 30 102 8 205 17 230 19 68 6 191 -19 320 -65 219 -78 176
-75 425 -28 491 92 929 203 1077 273 79 37 192 110 246 157 74 65 292 325 444
529 63 85 203 295 263 395 22 36 51 79 63 96 l24 29 -134 0 c-145 0 -819 -24
-1098 -40 -96 -5 -281 -22 -410 -39 -403 -50 -440 -52 -440 -27 0 26 282 221
602 414 558 339 1179 585 1948 771 204 49 609 133 810 166 382 64 442 89 476
199 14 45 33 246 23 246 -2 0 -12 -44 -22 -97z m-1854 -1693 c-72 -115 -78
-125 -98 -158 -37 -62 -287 -406 -306 -422 -3 -3 -30 -34 -59 -70 -153 -188
-355 -350 -438 -350 -43 0 -133 -31 -229 -79 -172 -86 -432 -152 -903 -231
-277 -47 -248 -46 -352 -12 -246 80 -331 88 -613 57 -233 -25 -339 -35 -480
-45 -127 -8 -187 -13 -585 -46 -302 -25 -423 -23 -553 9 -171 42 -466 146
-625 220 l-52 24 153 76 c83 42 164 79 179 83 16 3 25 10 22 15 -3 5 -1 9 5 9
5 0 12 -4 16 -10 3 -5 -13 -14 -35 -21 -22 -7 -40 -16 -40 -21 0 -5 -4 -7 -8
-4 -4 2 -14 1 -22 -5 -11 -6 -12 -9 -2 -9 7 0 10 -5 7 -10 -4 -6 -16 -8 -28
-5 -12 2 -16 2 -10 -1 20 -9 -1 -24 -92 -68 -44 -21 -75 -41 -68 -43 6 -2 125
52 265 121 139 68 281 136 315 150 35 14 86 37 115 50 454 207 1195 398 2183
562 746 123 1422 197 2215 240 87 5 123 15 108 29 -3 3 -135 1 -294 -5 -159
-6 -347 -12 -419 -15 l-130 -4 160 14 c88 7 287 16 443 20 248 7 282 10 283
24 0 10 2 11 6 4 2 -7 -13 -40 -34 -73z m-864 6 c-2 -2 -56 -6 -119 -8 -64 -3
-91 -2 -60 2 62 8 186 12 179 6z m-349 -26 c-8 -5 -33 -9 -55 -8 l-40 1 45 7
c25 4 50 8 55 8 6 1 3 -3 -5 -8z m78 3 c-10 -2 -28 -2 -40 0 -13 2 -5 4 17 4
22 1 32 -1 23 -4z m-845 -110 c-7 -2 -19 -2 -25 0 -7 3 -2 5 12 5 14 0 19 -2
13 -5z m-2638 -663 c-3 -5 -13 -10 -21 -10 -8 0 -28 -7 -44 -15 -17 -9 -30
-13 -30 -10 0 6 80 44 93 45 5 0 5 -4 2 -10z m-115 -50 c-8 -5 -19 -10 -25
-10 -5 0 -3 5 5 10 8 5 20 10 25 10 6 0 3 -5 -5 -10z m-50 -20 c0 -5 -5 -10
-11 -10 -5 0 -7 5 -4 10 3 6 8 10 11 10 2 0 4 -4 4 -10z m-95 -50 c-3 -5 -14
-10 -23 -9 -14 0 -13 2 3 9 27 11 27 11 20 0z m-4225 -255 c32 -8 87 -28 123
-43 58 -25 64 -29 52 -45 -12 -16 -17 -15 -86 18 -129 61 -250 69 -375 25 -69
-24 -74 -24 -74 -6 0 13 78 42 155 59 45 10 151 6 205 -8z m-132 -85 c20 -46
35 -50 58 -15 28 43 46 47 117 25 36 -11 75 -28 88 -38 l22 -19 -35 -26 c-43
-33 -45 -33 -70 -2 -13 16 -29 25 -48 25 -27 0 -30 -4 -50 -70 -23 -78 -86
-350 -96 -416 -3 -24 -9 -44 -13 -44 -8 0 -32 357 -31 466 0 53 -4 73 -14 77
-23 9 -60 -4 -78 -27 -16 -20 -17 -20 -36 -3 -37 34 -34 54 12 72 35 15 101
30 144 34 8 0 21 -17 30 -39z"/>
<path d="M12678 12303 c7 -3 16 -2 19 1 4 3 -2 6 -13 5 -11 0 -14 -3 -6 -6z"/>
<path d="M13630 12244 c-8 -1 -113 -8 -233 -14 -221 -11 -260 -16 -236 -31 9
-5 0 -22 -32 -61 -56 -68 -188 -201 -214 -215 -11 -7 -17 -15 -12 -19 4 -4 15
0 24 8 15 13 26 14 71 5 41 -9 60 -8 85 2 18 8 73 17 122 22 50 4 111 11 136
17 26 5 54 5 62 0 8 -4 39 -4 69 0 47 7 53 10 51 30 -3 26 19 26 27 0 3 -10
10 -14 15 -10 21 14 165 247 165 266 0 6 -73 6 -100 0z"/>
<path d="M12925 12189 c-163 -10 -319 -31 -910 -120 -38 -6 -90 -14 -115 -19
-25 -5 -72 -13 -105 -19 -160 -28 -575 -110 -660 -131 -71 -16 -248 -60 -312
-76 -35 -9 -61 -20 -58 -24 3 -5 -3 -6 -13 -4 -9 3 -56 -7 -102 -22 -47 -15
-88 -27 -92 -26 -3 1 -9 -5 -12 -13 -3 -8 0 -16 7 -16 7 -1 17 -2 22 -3 6 -1
37 -6 70 -11 33 -4 53 -10 45 -13 -40 -12 -79 -35 -74 -43 10 -17 113 -10 426
28 34 4 45 9 41 19 -3 9 3 15 18 15 13 1 32 2 41 3 28 2 21 20 -12 29 -16 4
-30 10 -30 12 0 3 11 3 25 -1 31 -8 47 22 22 41 -15 11 -15 14 4 33 12 13 32
22 50 22 19 0 28 4 24 11 -5 7 5 8 32 3 21 -4 40 -8 42 -10 2 -2 17 4 33 12
16 8 33 12 39 9 20 -13 91 6 96 26 7 23 22 24 38 2 11 -14 16 -15 43 -4 18 7
39 11 47 7 16 -6 126 6 266 30 48 8 112 14 143 14 31 0 137 11 234 24 97 14
204 28 237 31 33 4 76 11 95 15 19 5 76 11 125 15 128 8 151 17 224 85 47 43
72 60 92 60 15 0 31 5 34 10 3 6 5 9 3 9 -2 -1 -57 -5 -123 -10z m-1125 -199
c0 -5 -9 -10 -21 -10 -11 0 -17 5 -14 10 3 6 13 10 21 10 8 0 14 -4 14 -10z
m-637 -123 c-24 -5 -43 -14 -43 -18 0 -5 -9 -9 -21 -9 -11 0 -29 -5 -41 -11
-22 -12 -72 -4 -63 10 3 5 27 12 53 16 26 3 54 10 62 16 8 5 33 8 55 8 l40 -1
-42 -11z m-346 -89 c20 -33 12 -54 -19 -49 -5 0 -8 -3 -8 -9 0 -5 -5 -10 -12
-10 -6 0 -8 3 -5 7 4 3 2 12 -5 20 -10 12 -7 13 18 7 27 -6 28 -5 10 8 -10 8
-16 20 -12 26 9 16 23 15 33 0z"/>
<path d="M12755 11990 c-3 -5 1 -10 9 -10 9 0 16 5 16 10 0 6 -4 10 -9 10 -6
0 -13 -4 -16 -10z"/>
<path d="M12648 11969 c-12 -10 -28 -15 -35 -12 -7 3 -13 -2 -13 -11 0 -9 -5
-16 -11 -16 -6 0 -8 9 -4 21 7 21 5 21 -51 15 -172 -19 -240 -30 -249 -38 -7
-7 -2 -8 14 -3 13 4 21 3 18 -1 -3 -5 28 -8 69 -6 62 3 74 1 74 -12 0 -9 5
-16 10 -16 6 0 10 -5 10 -11 0 -7 -7 -8 -17 -4 -10 4 -29 9 -43 11 l-25 4 25
-9 c23 -8 24 -9 3 -10 -12 -1 -25 -6 -29 -13 -5 -8 4 -9 32 -5 21 4 47 7 57 7
10 0 16 4 13 8 -3 5 8 7 23 4 21 -3 31 2 45 23 17 26 22 27 70 22 29 -4 45 -3
37 2 -8 5 -9 11 -3 15 6 3 14 2 17 -4 9 -15 37 9 31 27 -3 7 -1 13 4 13 6 0
10 4 10 10 0 15 -58 7 -82 -11z m-78 -19 c0 -5 -2 -10 -4 -10 -3 0 -8 5 -11
10 -3 6 -1 10 4 10 6 0 11 -4 11 -10z m140 -1 c0 -7 -11 -8 -30 -4 -19 4 -30
3 -30 -4 0 -6 -8 -11 -17 -11 -15 0 -14 2 3 15 22 17 74 20 74 4z"/>
<path d="M12063 11903 c9 -2 25 -2 35 0 9 3 1 5 -18 5 -19 0 -27 -2 -17 -5z"/>
<path d="M12373 11903 c9 -2 23 -2 30 0 6 3 -1 5 -18 5 -16 0 -22 -2 -12 -5z"/>
<path d="M12580 11895 c-8 -9 -9 -15 -2 -15 6 0 14 5 17 10 4 6 16 8 27 4 14
-4 18 -2 14 5 -10 16 -41 14 -56 -4z"/>
<path d="M11745 11883 c-32 -2 -65 -8 -71 -14 -6 -5 -20 -6 -29 -2 -13 5 -16
3 -10 -6 4 -8 2 -17 -5 -21 -7 -5 2 -7 21 -5 19 1 48 -4 65 -13 24 -11 35 -12
45 -3 8 6 26 21 42 32 23 18 30 43 9 37 -4 -1 -34 -3 -67 -5z"/>
<path d="M12330 11850 c-8 -5 -46 -10 -83 -10 -39 0 -66 -4 -62 -9 9 -15 175
4 175 20 0 12 -11 11 -30 -1z"/>
<path d="M12138 11813 c7 -3 16 -2 19 1 4 3 -2 6 -13 5 -11 0 -14 -3 -6 -6z"/>
<path d="M12670 11801 c-46 -26 -278 -71 -515 -101 -88 -11 -171 -22 -185 -25
-14 -2 -115 -14 -225 -25 -110 -12 -238 -26 -285 -32 -47 -5 -125 -13 -175
-18 -49 -4 -198 -20 -330 -34 -311 -33 -428 -34 -560 -1 -107 27 -141 30 -149
16 -3 -5 -15 -7 -27 -4 -16 4 -17 8 -7 14 17 11 -1 10 -27 -1 -16 -7 -17 -9
-3 -9 9 -1 20 -6 24 -12 5 -8 -1 -10 -20 -7 -15 3 -26 1 -26 -6 0 -11 -66 -36
-94 -36 -8 0 -18 5 -22 11 -5 9 1 10 22 5 20 -5 25 -4 14 3 -12 8 -11 11 5 16
11 4 34 14 50 22 l30 14 -30 -6 c-45 -10 -125 -46 -125 -57 0 -5 -4 -6 -10 -3
-5 3 -10 2 -10 -3 0 -5 -16 -12 -35 -15 -33 -5 -245 -102 -245 -112 0 -2 21
-2 48 0 26 3 111 10 190 16 78 7 142 15 142 18 0 4 8 7 19 7 23 0 16 -26 -8
-27 -9 -1 -2 -5 14 -9 17 -5 55 -16 85 -26 77 -24 217 -30 648 -28 330 1 417
6 375 21 -25 9 -13 23 20 23 22 0 28 3 18 9 -29 18 1 26 115 29 69 2 122 8
125 14 4 6 11 8 17 4 5 -3 13 1 16 10 9 22 8 24 -11 25 -15 0 -15 2 2 8 11 5
26 6 33 3 7 -2 24 6 37 18 33 31 49 18 41 -33 -5 -32 -4 -38 6 -30 7 5 47 11
88 12 41 2 80 7 87 13 7 5 17 7 22 3 17 -10 81 6 81 20 0 14 11 19 68 30 20 4
38 2 47 -5 23 -19 58 -8 65 20 6 28 47 41 61 19 10 -17 37 4 41 34 4 30 31 33
43 5 9 -21 17 -23 90 -25 44 -1 93 -2 109 -2 16 -1 36 5 45 12 9 8 21 16 28
18 25 8 133 122 133 140 0 10 6 19 14 19 8 0 16 7 20 15 3 8 11 14 17 13 6 -2
14 3 16 10 5 14 -24 16 -47 3z m-167 -68 c-7 -2 -19 -2 -25 0 -7 3 -2 5 12 5
14 0 19 -2 13 -5z m-1568 -273 c-29 -30 -30 -30 -37 -9 -11 29 -2 39 34 39
l32 0 -29 -30z"/>
<path d="M11738 11793 c7 -3 16 -2 19 1 4 3 -2 6 -13 5 -11 0 -14 -3 -6 -6z"/>
<path d="M11858 11783 c6 -2 18 -2 25 0 6 3 1 5 -13 5 -14 0 -19 -2 -12 -5z"/>
<path d="M11290 11750 c20 -13 83 -13 75 0 -3 6 -25 10 -48 10 -31 0 -38 -3
-27 -10z"/>
<path d="M10375 11686 c-28 -12 -29 -13 -10 -25 18 -10 16 -11 -12 -6 -17 3
-33 2 -36 -2 -3 -5 4 -10 16 -10 21 -2 46 -8 134 -34 48 -14 302 -7 343 9 18
7 -8 10 -100 9 -69 -1 -141 2 -160 6 -84 17 -114 25 -102 26 19 2 14 21 -5 21
-15 0 -16 2 -3 10 23 15 -28 12 -65 -4z m125 -50 c0 -3 -4 -8 -10 -11 -5 -3
-10 -1 -10 4 0 6 5 11 10 11 6 0 10 -2 10 -4z"/>
<path d="M10223 11627 c-47 -18 -50 -27 -7 -20 39 6 86 34 54 32 -8 0 -29 -6
-47 -12z"/>
<path d="M9590 11450 c-9 -6 -10 -10 -3 -10 6 0 15 5 18 10 8 12 4 12 -15 0z"/>
<path d="M9435 11440 c-3 -6 1 -7 9 -4 18 7 21 14 7 14 -6 0 -13 -4 -16 -10z"/>
<path d="M9525 11419 c-32 -20 -22 -25 19 -9 14 5 26 14 26 20 0 14 -10 12
-45 -11z"/>
<path d="M19655 13956 c-163 -62 -170 -68 -184 -121 -6 -25 -14 -72 -18 -105
-5 -51 -4 -60 11 -60 23 0 305 97 322 111 10 8 14 38 13 115 -2 89 -4 104 -18
103 -9 0 -65 -19 -126 -43z m120 14 c-3 -5 -16 -10 -28 -9 -20 1 -20 2 3 9 14
4 26 8 28 9 2 1 0 -3 -3 -9z m-69 -25 c-11 -8 -25 -15 -32 -15 -7 0 -21 -3
-31 -7 -10 -3 -15 -3 -11 1 6 7 76 35 88 35 3 0 -4 -6 -14 -14z m-126 -49 c0
-3 -4 -8 -10 -11 -5 -3 -10 -1 -10 4 0 6 5 11 10 11 6 0 10 -2 10 -4z m160
-116 c-24 -15 -36 -11 -14 4 10 8 21 12 24 10 2 -3 -2 -9 -10 -14z m-110 6 c0
-2 -7 -7 -16 -10 -8 -3 -12 -2 -9 4 6 10 25 14 25 6z m-143 -28 c-3 -8 -6 -5
-6 6 -1 11 2 17 5 13 3 -3 4 -12 1 -19z m20 -10 c-3 -7 -5 -2 -5 12 0 14 2 19
5 13 2 -7 2 -19 0 -25z m151 13 c10 -6 8 -10 -9 -14 -12 -3 -30 -2 -38 4 -12
8 -10 8 8 3 16 -4 21 -3 17 5 -8 13 3 14 22 2z m-110 -46 c-2 -1 -18 -9 -35
-18 -31 -15 -33 -14 -33 3 0 13 5 17 15 14 8 -4 15 -2 15 4 0 6 9 8 20 5 12
-3 19 -7 18 -8z"/>
<path d="M22165 13426 c-129 -78 -271 -412 -370 -871 -78 -362 -121 -616 -231
-1360 -25 -170 -49 -325 -54 -342 -5 -20 -5 -33 1 -33 15 0 11 -41 -20 -197
-38 -187 -76 -309 -101 -323 -10 -5 -37 -10 -59 -10 -57 0 -286 -38 -346 -57
-27 -8 -58 -22 -67 -30 -10 -9 -24 -13 -33 -9 -9 3 -14 2 -11 -3 3 -4 -14 -14
-37 -21 -23 -8 -79 -31 -124 -52 -45 -21 -85 -38 -90 -38 -4 0 -35 -14 -68
-30 -33 -16 -68 -30 -77 -30 -9 0 -19 -4 -22 -9 -4 -5 -39 -22 -79 -37 -39
-15 -76 -31 -82 -35 -13 -9 -292 -129 -300 -129 -3 0 -25 -8 -48 -19 -23 -10
-123 -53 -222 -95 -99 -42 -189 -81 -200 -86 -26 -11 -161 -69 -200 -85 -16
-7 -61 -28 -100 -45 -70 -33 -155 -70 -270 -117 -33 -13 -80 -34 -105 -45 -25
-12 -101 -44 -170 -73 -69 -29 -163 -69 -210 -89 -46 -20 -90 -36 -96 -36 -7
0 -14 -4 -16 -9 -1 -5 -12 -11 -23 -13 -11 -1 -22 -5 -25 -8 -3 -3 -43 -21
-90 -39 -47 -19 -89 -38 -94 -43 -6 -4 -16 -8 -23 -8 -8 0 -64 -23 -126 -51
-164 -74 -160 -72 -311 -139 -76 -33 -155 -70 -175 -80 -102 -56 -245 -119
-255 -113 -6 3 -8 3 -4 -2 8 -8 -41 -39 -49 -31 -10 9 35 340 46 344 9 3 9 7
0 18 -6 7 -8 22 -5 31 12 29 35 443 42 735 6 241 9 278 23 281 13 4 12 5 -2 6
-17 1 -18 9 -14 109 3 59 12 159 21 222 27 195 39 551 26 745 -17 251 -62 542
-100 640 -4 11 -20 58 -35 105 -76 232 -234 469 -380 570 -150 103 -340 108
-512 14 -124 -68 -321 -249 -431 -396 -116 -155 -266 -428 -372 -678 -335
-785 -569 -1875 -680 -3175 -34 -400 -88 -685 -161 -855 l-21 -48 -96 -30
c-90 -28 -278 -72 -512 -120 -100 -21 -169 -33 -490 -82 -107 -17 -208 -32
-225 -35 -16 -3 -147 -14 -290 -25 -479 -36 -1245 -56 -1548 -39 -89 5 -295
13 -457 19 -456 16 -498 18 -517 28 -10 5 -23 7 -29 5 -7 -2 -38 9 -70 25 -33
16 -81 32 -108 36 -27 3 -63 15 -80 25 -25 16 -33 17 -43 6 -8 -9 -9 -15 0
-24 16 -16 3 -14 -38 6 -39 19 -58 11 -29 -13 19 -15 19 -16 -1 -8 -11 4 -34
8 -51 10 -17 1 -73 10 -125 19 -356 60 -477 76 -604 79 -161 5 -506 25 -610
36 -49 5 -157 12 -240 15 -192 8 -976 63 -1205 85 -52 5 -138 12 -190 15 -52
3 -117 9 -145 12 -27 2 -115 11 -195 18 -197 18 -436 42 -545 55 -278 34 -340
41 -438 50 -60 6 -117 15 -127 20 -9 5 -20 7 -22 5 -3 -3 -38 -1 -79 5 -41 5
-96 12 -124 15 -27 2 -84 10 -125 16 -41 6 -94 12 -117 14 -22 1 -45 5 -51 9
-5 3 -96 17 -203 31 -107 14 -218 30 -246 36 -29 6 -57 8 -63 4 -5 -3 -10 -1
-10 4 0 6 -13 11 -28 11 -16 0 -71 7 -123 15 -90 15 -125 21 -249 44 -58 11
-221 39 -305 52 -27 4 -81 15 -119 23 -37 9 -100 21 -140 27 -87 13 -239 42
-366 70 -263 58 -359 75 -349 65 4 -4 17 -8 30 -10 13 -1 31 -5 39 -8 30 -11
111 -28 130 -28 11 0 20 -4 20 -9 0 -5 24 -15 54 -21 62 -13 80 -41 46 -73
-11 -10 -20 -13 -20 -6 0 21 -25 -8 -54 -61 -26 -47 -26 -50 -8 -50 26 0 19
-29 -14 -65 -18 -20 -33 -25 -71 -26 -79 -1 -99 -17 -23 -19 56 0 63 -2 48
-14 -10 -7 -18 -18 -18 -24 0 -6 -13 -23 -30 -39 -16 -15 -30 -33 -30 -39 0
-14 -33 -44 -48 -44 -6 0 -23 -5 -39 -12 -15 -6 -32 -10 -37 -9 -5 1 -27 -1
-48 -4 -28 -5 -38 -12 -38 -25 0 -11 -8 -35 -18 -54 -16 -32 -23 -36 -92 -52
-153 -34 -221 -63 -191 -83 13 -9 6 -35 -7 -27 -4 2 -6 -14 -4 -35 4 -34 1
-41 -17 -46 -17 -4 -21 -13 -21 -44 0 -21 -5 -59 -12 -84 -11 -39 -10 -50 10
-97 12 -30 22 -57 22 -61 0 -13 27 -37 42 -37 19 -1 129 -38 142 -49 6 -5 26
-12 44 -16 17 -3 32 -10 32 -14 0 -5 32 -13 70 -20 39 -6 78 -15 88 -20 21
-12 106 -40 152 -51 19 -5 73 -18 120 -30 47 -12 108 -26 135 -32 58 -11 97
-20 180 -42 124 -31 282 -65 335 -71 30 -4 73 -13 95 -20 51 -18 148 -35 224
-40 32 -2 72 -10 88 -19 18 -9 72 -17 139 -21 122 -7 138 -10 129 -25 -4 -6
-3 -10 2 -9 4 1 10 1 13 0 3 -2 61 -3 130 -5 80 -1 145 -8 180 -18 30 -9 120
-22 200 -28 80 -6 147 -15 150 -19 8 -13 49 -20 52 -9 2 6 13 6 28 -1 14 -6
66 -16 115 -21 113 -14 350 -38 390 -41 30 -2 30 -2 -5 -8 -24 -5 7 -10 100
-15 74 -5 146 -10 160 -11 14 -2 47 -4 73 -4 27 -1 46 -5 43 -10 -7 -10 69
-19 179 -21 47 0 82 -5 86 -12 4 -6 14 -8 22 -5 8 3 18 2 23 -3 13 -13 159
-29 364 -40 293 -17 430 -29 463 -39 42 -12 131 -20 302 -27 182 -6 243 -11
258 -21 18 -11 117 -14 117 -3 0 5 12 5 28 -2 26 -11 163 -21 409 -31 68 -3
127 -9 133 -12 25 -15 136 -26 310 -31 369 -10 632 -23 643 -32 37 -29 2139
-29 2158 0 3 5 123 14 265 19 142 5 306 16 364 24 58 8 127 15 153 15 32 0 46
4 42 11 -5 7 28 9 109 6 64 -2 119 -1 121 3 3 4 42 11 87 15 46 4 88 11 94 16
7 5 67 17 135 25 68 8 129 20 136 26 7 5 18 8 25 5 7 -2 21 0 32 5 23 12 58
19 116 22 25 2 70 10 100 19 30 9 95 21 143 26 48 6 93 13 99 17 6 4 62 8 125
10 63 1 120 7 127 13 7 6 37 13 67 17 30 3 55 7 57 9 1 1 -45 5 -103 9 -58 3
-153 9 -212 14 l-108 7 200 7 c299 12 308 12 330 25 12 6 52 13 90 14 72 3
105 12 105 30 0 6 7 18 16 27 15 15 16 15 11 -3 -3 -11 -9 -48 -12 -82 -8 -72
5 -84 32 -29 10 22 26 37 42 41 14 4 35 15 46 25 12 11 38 23 60 28 27 5 44
16 51 31 11 21 13 22 17 5 4 -16 5 -16 6 -2 1 19 15 24 93 38 29 6 73 15 98
20 25 6 77 15 115 22 39 6 73 15 76 20 3 5 9 9 13 9 3 0 11 1 18 4 7 2 31 6
53 9 111 13 650 125 695 144 8 3 20 7 25 7 96 15 421 134 560 207 22 11 61 31
88 45 26 13 47 27 47 31 0 4 18 20 40 36 22 17 40 35 40 42 0 6 6 14 13 17 7
2 13 17 15 33 1 15 9 35 17 44 8 9 12 20 8 23 -3 4 -1 7 5 7 21 0 21 -18 0
-46 -13 -15 -17 -25 -11 -21 7 4 22 22 35 39 12 17 17 29 11 25 -6 -4 -13 0
-16 7 -4 10 0 13 14 11 12 -2 19 2 19 11 0 8 -5 12 -10 9 -11 -7 23 55 56 100
30 42 145 273 189 380 78 191 96 228 116 248 18 17 19 17 19 -10 l1 -28 13 30
c10 23 24 33 62 44 27 8 59 20 70 28 12 8 31 15 42 18 11 2 29 12 40 23 11 11
44 27 73 36 30 8 62 24 71 36 18 21 58 28 58 10 0 -29 67 15 89 58 8 16 18 21
30 17 13 -4 20 1 24 15 3 11 9 20 14 19 9 -2 39 8 66 22 12 6 17 5 17 -3 1 -8
6 -6 14 5 7 9 20 17 29 17 9 0 19 5 22 10 9 15 73 40 101 40 12 0 25 4 29 9 3
6 27 20 53 33 26 13 50 27 53 31 3 4 10 7 15 6 16 -5 59 14 75 32 9 11 23 19
31 19 9 0 21 7 28 15 7 8 27 17 46 21 19 3 37 10 40 15 3 5 16 9 29 9 12 0 25
7 29 15 3 8 13 15 22 15 10 0 14 5 11 14 -5 11 6 16 41 21 79 10 89 14 95 35
3 11 13 20 22 20 9 0 54 18 101 40 47 22 89 40 94 40 5 0 17 11 25 24 12 17
29 26 63 30 99 14 147 29 175 58 16 15 32 26 36 23 5 -2 23 7 41 20 19 14 42
25 51 25 10 0 24 6 31 14 8 7 30 17 49 21 19 4 39 12 46 17 7 5 16 7 21 4 6
-3 15 0 21 8 7 9 33 13 74 13 38 0 85 8 122 20 33 12 100 29 149 38 102 18
106 20 107 43 0 14 2 13 9 -3 6 -15 9 -6 9 33 1 33 -3 51 -9 47 -5 -3 -10 -4
-10 -1 0 9 77 46 95 46 8 0 23 8 33 18 26 24 59 42 78 42 9 0 28 8 42 18 15
10 47 27 72 39 41 19 56 25 85 33 6 2 15 9 20 16 8 12 37 19 88 23 5 1 6 5 3
10 -8 12 42 44 55 35 11 -6 70 14 80 28 6 10 39 10 98 2 24 -4 67 -1 95 5 28
6 93 17 145 25 95 16 128 29 103 45 -12 7 -7 40 7 42 3 1 23 3 43 4 20 2 47
10 60 18 13 8 52 18 88 21 116 12 149 18 147 29 -3 13 107 34 239 47 55 5 127
16 159 25 32 8 81 17 109 20 28 3 62 10 76 15 14 5 52 14 85 20 109 18 150 28
220 54 103 39 136 58 130 77 -4 10 12 30 45 58 127 107 219 348 289 754 75
434 84 564 87 1207 2 305 3 566 3 580 0 14 -2 129 -4 255 -2 214 -17 376 -35
400 -10 13 -11 25 -15 120 -3 89 -21 149 -71 245 -42 79 -60 101 -109 134 -48
33 -97 33 -150 2z m41 -557 c3 -5 -8 -6 -24 -3 -17 4 -32 1 -36 -5 -4 -6 -3
-11 3 -11 5 0 11 -6 14 -12 2 -7 3 -5 2 5 -4 22 11 22 19 0 4 -10 -1 -23 -14
-35 -22 -20 -27 -39 -9 -35 6 1 13 -7 15 -18 3 -22 -50 -74 -77 -75 -32 0 -38
-26 -41 -171 l-3 -144 -13 100 c-7 55 -16 118 -18 140 -6 44 -20 67 -28 44
-48 -151 -65 -197 -60 -164 8 59 41 150 81 233 34 68 39 72 70 72 18 0 33 5
33 10 0 6 -9 10 -20 10 -26 0 -25 6 3 34 40 42 86 53 103 25z m64 -59 c0 -5
-2 -10 -4 -10 -3 0 -8 5 -11 10 -3 6 -1 10 4 10 6 0 11 -4 11 -10z m-331 -470
c7 -61 7 -98 1 -104 -7 -7 -10 5 -10 31 0 23 -4 45 -10 48 -5 3 -10 4 -10 1 0
-2 -3 -12 -7 -22 -4 -12 -3 -15 5 -10 7 4 12 1 12 -8 0 -8 -4 -17 -9 -20 -5
-3 -7 -25 -5 -49 2 -23 1 -34 -2 -24 -3 9 -9 17 -14 17 -5 0 -7 20 -5 45 4 48
35 198 40 193 2 -2 8 -46 14 -98z m462 13 c-8 -15 -10 -15 -11 -2 0 17 10 32
18 25 2 -3 -1 -13 -7 -23z m-334 -55 c-3 -8 -6 -5 -6 6 -1 11 2 17 5 13 3 -3
4 -12 1 -19z m343 -23 c0 -5 -5 -3 -10 5 -5 8 -10 20 -10 25 0 6 5 3 10 -5 5
-8 10 -19 10 -25z m-13 -57 c0 -10 -4 -15 -9 -12 -4 3 -8 -10 -9 -28 -1 -36
-16 -93 -18 -68 -1 13 -2 13 -12 0 -8 -12 -9 -9 -4 10 3 14 11 55 18 91 10 59
12 64 22 45 7 -12 12 -29 12 -38z m-430 -200 c-3 -8 -6 -5 -6 6 -1 11 2 17 5
13 3 -3 4 -12 1 -19z m-17 -508 c0 -5 -6 -10 -14 -10 -21 0 -28 -17 -10 -24
10 -4 13 -2 8 7 -4 6 -3 8 1 4 13 -11 6 -90 -8 -102 -7 -5 -13 -20 -14 -32 -4
-33 -46 -94 -60 -88 -7 2 -13 -2 -13 -9 0 -8 -6 -17 -12 -19 -8 -3 -6 -6 5 -6
26 -1 20 -16 -8 -17 -25 -2 -25 -2 -25 90 0 75 3 94 18 107 9 9 31 31 47 51
41 47 85 72 85 48z m366 -19 c-14 -5 -16 -10 -8 -15 7 -4 12 -12 12 -18 0 -6
-9 -3 -20 7 -22 19 -12 35 20 34 10 0 9 -3 -4 -8z m35 -54 c-1 -12 -15 -9 -19
4 -3 6 1 10 8 8 6 -3 11 -8 11 -12z m-527 -274 c-10 -42 -22 -49 -19 -11 2 18
4 34 4 36 1 1 6 2 11 2 6 0 8 -11 4 -27z m146 -210 c-11 -17 -11 -17 -6 0 3
10 7 26 7 35 1 15 2 15 6 0 2 -10 -1 -25 -7 -35z m-15 -40 c-4 -10 -17 -45
-28 -78 -12 -33 -24 -62 -27 -65 -3 -3 -5 -11 -6 -17 -1 -7 -2 -22 -2 -33 -1
-11 -6 -20 -12 -20 -11 0 -4 51 15 100 7 19 21 56 30 83 9 26 21 47 27 47 6 0
7 -8 3 -17z m-81 -272 c-9 -49 -22 -81 -25 -61 -11 75 -8 97 15 97 13 0 15 -7
10 -36z m68 -400 c9 -19 14 -41 10 -49 -3 -10 -1 -13 6 -8 11 6 32 -50 32 -86
0 -9 6 -19 13 -21 6 -3 3 -6 -8 -6 -16 -1 -26 16 -52 87 -18 48 -36 100 -39
117 -7 26 -6 28 7 15 8 -8 22 -30 31 -49z m245 7 c-2 -13 -4 -5 -4 17 -1 22 1
32 4 23 2 -10 2 -28 0 -40z m13 -62 c0 -8 -4 -18 -10 -21 -5 -3 -10 3 -10 14
0 12 5 21 10 21 6 0 10 -6 10 -14z m-1765 -246 c18 -35 19 -44 3 -34 -7 5 -9
2 -6 -8 4 -8 0 -15 -8 -15 -7 0 -11 4 -8 9 3 5 3 20 0 34 -6 21 -9 23 -27 13
-11 -6 -24 -8 -27 -4 -3 3 4 8 16 12 12 3 22 9 22 14 0 19 20 7 35 -21z m-25
-30 c0 -5 -2 -10 -4 -10 -3 0 -8 5 -11 10 -3 6 -1 10 4 10 6 0 11 -4 11 -10z
m-34 -15 c17 -16 14 -18 -10 -9 -9 3 -16 10 -16 15 0 13 9 11 26 -6z m9 -55
c3 -5 1 -10 -4 -10 -6 0 -11 5 -11 10 0 6 2 10 4 10 3 0 8 -4 11 -10z m-6308
-3746 c-3 -3 -12 -4 -19 -1 -8 3 -5 6 6 6 11 1 17 -2 13 -5z"/>
<path d="M22110 12840 c0 -5 5 -10 10 -10 6 0 10 5 10 10 0 6 -4 10 -10 10 -5
0 -10 -4 -10 -10z"/>
<path d="M21887 11363 c-4 -3 -7 -13 -7 -22 1 -13 3 -13 11 2 11 19 8 33 -4
20z"/>
<path d="M2560 12964 c0 -42 64 -124 91 -116 4 1 5 -8 2 -18 -4 -16 0 -20 21
-20 l26 0 -36 53 c-45 64 -104 122 -104 101z"/>
<path d="M17333 12821 c-45 -4 -86 -11 -90 -15 -4 -5 23 -6 60 -2 40 4 66 3
63 -2 -7 -11 -280 -37 -301 -28 -44 16 -12 -55 98 -221 48 -73 91 -135 97
-138 31 -19 156 103 197 191 34 75 36 148 4 192 -12 18 -28 31 -34 30 -7 0
-49 -4 -94 -7z"/>
<path d="M2640 12790 c0 -5 5 -10 10 -10 6 0 10 5 10 10 0 6 -4 10 -10 10 -5
0 -10 -4 -10 -10z"/>
<path d="M2675 12783 c-14 -14 -14 -18 -1 -37 9 -11 27 -44 41 -73 13 -28 28
-53 33 -55 10 -4 89 -138 97 -166 4 -13 9 -22 11 -20 2 3 -1 19 -6 38 -24 84
20 16 52 -80 l18 -55 -4 63 c-3 45 -14 84 -40 138 -40 84 -150 249 -171 258
-8 3 -22 -2 -30 -11z"/>
<path d="M2891 12104 c0 -11 3 -14 6 -6 3 7 2 16 -1 19 -3 4 -6 -2 -5 -13z"/>
<path d="M2870 11864 c0 -22 -5 -45 -11 -51 -8 -8 -5 -14 10 -22 21 -12 21
-11 15 46 -8 70 -14 81 -14 27z"/>
<path d="M1982 11850 c-57 -41 -53 -46 8 -8 28 17 50 33 50 34 0 11 -21 1 -58
-26z"/>
<path d="M2135 11824 c43 -38 111 -88 217 -159 65 -44 119 -58 133 -35 6 9 -1
11 -37 14 -34 2 -290 162 -316 198 -7 10 -19 18 -25 18 -7 -1 6 -17 28 -36z"/>
<path d="M20870 10650 c-8 -5 -10 -10 -5 -10 6 0 17 5 25 10 8 5 11 10 5 10
-5 0 -17 -5 -25 -10z"/>
<path d="M20715 10586 c-109 -47 -242 -114 -205 -102 21 6 334 147 339 152 12
12 -25 -2 -134 -50z"/>
<path d="M20454 10465 c-18 -13 -18 -14 4 -8 12 3 25 9 28 14 8 14 -10 11 -32
-6z"/>
<path d="M20355 10424 c-27 -13 -99 -45 -160 -70 -152 -63 -198 -85 -193 -89
4 -4 417 172 427 181 13 12 -31 -1 -74 -22z"/>
<path d="M19253 9940 c-34 -14 -28 -21 7 -9 17 6 30 13 30 15 0 6 -12 4 -37
-6z"/>
<path d="M19131 9889 c-13 -5 -21 -12 -18 -15 3 -3 18 1 34 10 31 17 21 20
-16 5z"/>
<path d="M1670 9758 c0 -115 -27 -636 -35 -684 -9 -51 12 -60 96 -44 l71 14
-6 65 c-12 123 -26 346 -32 511 l-7 164 -35 38 c-19 21 -39 38 -44 38 -4 0 -8
-46 -8 -102z"/>
<path d="M18970 9820 c-8 -5 -10 -10 -5 -10 6 0 17 5 25 10 8 5 11 10 5 10 -5
0 -17 -5 -25 -10z"/>
<path d="M18865 9779 c-38 -16 -113 -47 -165 -68 -680 -275 -1040 -431 -1040
-453 0 -10 13 -10 25 1 6 4 57 29 115 56 58 26 138 62 177 81 40 19 76 34 79
34 4 0 25 9 48 20 51 25 561 237 768 320 65 25 92 40 72 40 -5 0 -40 -14 -79
-31z"/>
<path d="M1899 9647 c19 -20 36 -35 38 -33 7 6 -9 36 -20 36 -6 0 -20 8 -31
17 -12 10 -6 1 13 -20z"/>
<path d="M13675 9414 c-11 -2 -130 -15 -265 -29 -1337 -139 -1660 -183 -2055
-281 -265 -67 -514 -158 -759 -281 -149 -74 -173 -98 -126 -123 45 -24 1657
106 2480 201 484 55 592 61 609 32 10 -17 10 -17 11 2 0 11 3 15 9 10 19 -22
-27 -330 -89 -590 -34 -142 -109 -403 -161 -563 -6 -19 -9 -36 -6 -38 11 -11
99 106 135 180 57 117 119 342 197 716 57 270 124 723 111 756 -5 13 -39 16
-91 8z m-2025 -293 c0 -5 -46 -20 -102 -35 -57 -15 -107 -28 -113 -30 -5 -1
-26 -6 -45 -10 -71 -16 -267 -81 -335 -112 -16 -7 -68 -27 -114 -44 -66 -24
-86 -28 -93 -18 -4 7 -8 16 -8 20 0 20 356 139 580 192 80 19 154 36 165 39
34 8 65 7 65 -2z m-860 -293 c0 -18 -157 -85 -212 -92 -32 -3 -58 -3 -58 2 0
4 55 35 123 69 109 55 123 60 135 45 6 -9 12 -19 12 -24z"/>
<path d="M2435 9176 c-66 -28 -103 -100 -140 -271 -2 -11 -9 -40 -15 -65 -14
-56 -39 -252 -40 -302 0 -21 5 -38 10 -38 6 0 21 -11 33 -23 27 -30 111 -77
136 -77 10 0 30 -9 45 -21 16 -13 45 -22 78 -24 29 -3 89 -12 133 -21 44 -9
94 -18 110 -21 17 -3 35 -10 41 -14 6 -5 20 -6 29 -2 12 4 16 3 12 -4 -4 -7
14 -13 51 -16 110 -12 172 -25 206 -46 19 -12 50 -22 70 -23 20 -1 36 -5 36
-9 0 -6 45 -15 130 -25 14 -2 52 -10 85 -18 33 -8 78 -17 100 -20 22 -3 65
-11 95 -16 30 -6 84 -14 120 -19 36 -4 76 -13 89 -20 13 -7 51 -13 84 -12 33
0 85 -6 114 -15 30 -9 60 -13 68 -10 8 3 36 -1 62 -9 27 -8 75 -15 108 -16 33
-1 63 -6 66 -12 4 -6 15 -6 25 -2 11 5 24 7 29 5 6 -1 17 -4 25 -5 27 -4 50
-17 45 -25 -3 -5 0 -12 6 -16 8 -5 9 -3 4 6 -6 10 -4 11 11 5 10 -5 48 -11 84
-13 36 -2 71 -9 79 -15 9 -8 50 -11 118 -9 71 1 103 -1 103 -9 0 -8 4 -8 15 1
10 8 24 9 42 4 16 -5 37 -9 48 -10 11 -1 31 -2 45 -3 24 -2 24 -2 6 -16 -18
-14 -18 -14 0 -13 11 1 31 -2 47 -5 15 -4 27 -3 27 2 0 5 -12 12 -27 14 -23 3
-22 4 9 6 32 1 35 -2 31 -19 -5 -19 12 -29 19 -11 2 5 28 11 58 15 30 3 48 3
40 0 -8 -3 -22 -8 -30 -12 -18 -7 80 -23 130 -21 135 5 222 -2 247 -18 15 -10
24 -12 20 -5 -6 8 0 12 22 12 29 0 46 -20 19 -20 -7 0 -5 -5 5 -11 14 -8 22
-8 30 0 19 19 234 10 222 -9 -3 -4 21 -8 53 -7 31 0 102 -5 157 -11 55 -6 104
-11 108 -12 5 0 6 -3 4 -7 -3 -5 29 -8 71 -9 80 -1 180 -9 512 -43 350 -35
522 -50 695 -61 94 -6 334 -21 535 -35 201 -14 577 -32 835 -40 259 -8 547
-20 640 -26 94 -6 185 -10 203 -9 22 0 32 -4 32 -15 0 -10 10 -15 28 -15 15 0
52 -7 82 -15 93 -27 105 -27 130 0 47 50 18 122 -124 305 -209 269 -351 429
-439 496 -174 132 -361 181 -837 219 -107 8 -269 22 -360 30 -189 17 -633 53
-1090 90 -1584 127 -2609 246 -4045 470 -509 79 -600 87 -660 61z m1622 -1092
c-3 -3 -12 -4 -19 -1 -8 3 -5 6 6 6 11 1 17 -2 13 -5z m158 -34 c3 -5 2 -10
-4 -10 -5 0 -13 5 -16 10 -3 6 -2 10 4 10 5 0 13 -4 16 -10z m355 -70 c0 -5
-5 -10 -11 -10 -5 0 -7 5 -4 10 3 6 8 10 11 10 2 0 4 -4 4 -10z m607 -76 c-3
-3 -12 -4 -19 -1 -8 3 -5 6 6 6 11 1 17 -2 13 -5z m160 -20 c-3 -3 -12 -4 -19
-1 -8 3 -5 6 6 6 11 1 17 -2 13 -5z"/>
<path d="M2848 7903 c6 -2 18 -2 25 0 6 3 1 5 -13 5 -14 0 -19 -2 -12 -5z"/>
<path d="M5418 7843 c7 -3 16 -2 19 1 4 3 -2 6 -13 5 -11 0 -14 -3 -6 -6z"/>
<path d="M5528 7843 c7 -3 16 -2 19 1 4 3 -2 6 -13 5 -11 0 -14 -3 -6 -6z"/>
<path d="M5848 7803 c7 -3 16 -2 19 1 4 3 -2 6 -13 5 -11 0 -14 -3 -6 -6z"/>
<path d="M6093 7773 c9 -2 25 -2 35 0 9 3 1 5 -18 5 -19 0 -27 -2 -17 -5z"/>
<path d="M3060 7694 c0 -14 4 -23 10 -19 6 3 10 15 10 26 0 10 -4 19 -10 19
-5 0 -10 -12 -10 -26z"/>
<path d="M10415 7000 c11 -5 34 -8 50 -8 l30 0 -30 8 c-16 4 -39 8 -50 8 l-20
1 20 -9z"/>
<path d="M10500 6980 c0 -5 9 -10 21 -10 11 0 17 5 14 10 -3 6 -13 10 -21 10
-8 0 -14 -4 -14 -10z"/>
<path d="M1 6706 c7 -7 196 -56 268 -70 74 -14 14 10 -92 37 -124 32 -185 43
-176 33z"/>
<path d="M788 6523 c7 -3 16 -2 19 1 4 3 -2 6 -13 5 -11 0 -14 -3 -6 -6z"/>
<path d="M875 6510 c-3 -5 -2 -10 4 -10 5 0 16 -3 24 -6 8 -3 17 2 20 10 5 12
0 16 -18 16 -13 0 -27 -4 -30 -10z"/>
<path d="M1334 6415 c75 -27 101 -30 110 -16 4 5 -2 7 -13 4 -10 -3 -32 2 -47
10 -16 8 -49 17 -74 20 -41 6 -39 4 24 -18z"/>
<path d="M1818 6323 c7 -3 16 -2 19 1 4 3 -2 6 -13 5 -11 0 -14 -3 -6 -6z"/>
<path d="M1858 6323 c7 -3 16 -2 19 1 4 3 -2 6 -13 5 -11 0 -14 -3 -6 -6z"/>
<path d="M2600 6196 c0 -10 23 -15 83 -20 45 -4 102 -14 127 -21 47 -14 147
-29 139 -20 -8 8 -140 36 -209 45 -36 5 -81 13 -100 19 -43 14 -40 14 -40 -3z"/>
<path d="M3074 6121 c3 -5 39 -15 79 -21 39 -7 96 -16 126 -21 30 -5 68 -9 85
-8 52 1 1 15 -82 23 -40 4 -85 11 -100 16 -45 14 -114 21 -108 11z"/>
<path d="M3428 6063 c6 -2 18 -2 25 0 6 3 1 5 -13 5 -14 0 -19 -2 -12 -5z"/>
<path d="M13968 6063 c7 -3 16 -2 19 1 4 3 -2 6 -13 5 -11 0 -14 -3 -6 -6z"/>
<path d="M14088 6023 c28 -2 76 -2 105 0 28 2 5 3 -53 3 -58 0 -81 -1 -52 -3z"/>
<path d="M3748 6013 c7 -3 16 -2 19 1 4 3 -2 6 -13 5 -11 0 -14 -3 -6 -6z"/>
<path d="M3935 5992 c-23 -6 269 -51 330 -51 22 1 33 3 25 6 -8 2 -22 7 -30
10 -26 10 -42 12 -160 22 -63 5 -122 11 -130 14 -8 2 -24 2 -35 -1z"/>
<path d="M4348 5933 c7 -3 16 -2 19 1 4 3 -2 6 -13 5 -11 0 -14 -3 -6 -6z"/>
<path d="M4584 5929 c-3 -5 -2 -9 3 -9 4 0 1 -5 -7 -10 -10 -6 11 -8 62 -7 42
1 74 5 70 9 -11 11 -122 26 -128 17z"/>
<path d="M4470 5920 c8 -5 24 -10 34 -10 26 0 18 6 -19 14 -22 5 -26 4 -15 -4z"/>
<path d="M4850 5870 c0 -6 17 -10 37 -10 43 0 41 5 -4 13 -19 4 -33 2 -33 -3z"/>
<path d="M5450 5815 c9 -11 31 -15 76 -15 35 0 86 -5 114 -11 28 -6 90 -12
138 -14 80 -3 187 -16 237 -29 28 -7 260 -17 254 -11 -8 8 -146 26 -279 37
-196 15 -282 25 -325 36 -22 5 -82 13 -134 16 -84 6 -93 5 -81 -9z"/>
<path d="M23085 5794 c-11 -2 -66 -8 -122 -15 -57 -6 -103 -14 -103 -18 0 -10
151 -1 173 10 10 6 42 9 70 8 29 -1 61 3 72 9 17 10 13 11 -25 10 -25 0 -54
-2 -65 -4z"/>
<path d="M6428 5703 c12 -2 30 -2 40 0 9 3 -1 5 -23 4 -22 0 -30 -2 -17 -4z"/>
<path d="M22250 5680 c-13 -8 -13 -10 2 -10 9 0 20 5 23 10 8 13 -5 13 -25 0z"/>
<path d="M6878 5663 c7 -3 16 -2 19 1 4 3 -2 6 -13 5 -11 0 -14 -3 -6 -6z"/>
<path d="M6943 5653 c9 -2 23 -2 30 0 6 3 -1 5 -18 5 -16 0 -22 -2 -12 -5z"/>
<path d="M7189 5651 c12 -8 51 -4 51 5 0 2 -15 4 -32 4 -23 0 -29 -3 -19 -9z"/>
<path d="M7288 5653 c7 -3 16 -2 19 1 4 3 -2 6 -13 5 -11 0 -14 -3 -6 -6z"/>
<path d="M7648 5603 c18 -2 45 -2 60 0 15 2 0 4 -33 4 -33 0 -45 -2 -27 -4z"/>
<path d="M7988 5583 c12 -2 30 -2 40 0 9 3 -1 5 -23 4 -22 0 -30 -2 -17 -4z"/>
<path d="M19804 5490 c-5 -5 -80 -11 -166 -12 -85 -2 -151 -6 -144 -10 6 -4
-29 -8 -79 -8 -67 -1 -84 -4 -66 -11 22 -9 294 3 384 17 21 3 65 6 98 6 32 0
62 5 66 10 4 7 -4 9 -23 5 -16 -3 -36 -1 -45 3 -9 5 -20 5 -25 0z"/>
<path d="M9710 5460 c0 -13 11 -13 30 0 12 8 11 10 -7 10 -13 0 -23 -4 -23
-10z"/>
<path d="M19192 5454 c-19 -21 8 -28 66 -16 l47 10 -50 1 c-36 1 -46 4 -35 11
13 9 13 10 0 9 -8 0 -21 -6 -28 -15z"/>
<path d="M18470 5410 c0 -5 9 -10 20 -10 11 0 20 5 20 10 0 6 -9 10 -20 10
-11 0 -20 -4 -20 -10z"/>
<path d="M17440 5391 c0 -16 30 -21 108 -19 42 1 60 3 39 5 -20 2 -35 8 -32
14 4 5 -19 9 -54 9 -34 0 -61 -4 -61 -9z"/>
<path d="M16875 5380 c-88 -3 -134 -7 -103 -8 34 -1 58 -7 60 -14 4 -10 16
-10 57 0 29 7 57 9 63 6 14 -9 98 5 98 17 0 5 -3 8 -7 7 -5 -1 -80 -5 -168 -8z"/>
<path d="M12738 5353 c6 -2 18 -2 25 0 6 3 1 5 -13 5 -14 0 -19 -2 -12 -5z"/>
<path d="M13018 5353 c6 -2 18 -2 25 0 6 3 1 5 -13 5 -14 0 -19 -2 -12 -5z"/>
<path d="M14430 5356 c0 -9 30 -14 35 -6 4 6 -3 10 -14 10 -12 0 -21 -2 -21
-4z"/>
<path d="M14965 5330 c3 -5 10 -10 16 -10 5 0 9 5 9 10 0 6 -7 10 -16 10 -8 0
-12 -4 -9 -10z"/>
</g>
</svg>
